<svg xmlns="http://www.w3.org/2000/svg" viewBox="0 0 2279.41 1381.1"><defs><style>.cls-1{fill:#fff;}.cls-2{fill:#33348e;}.cls-3{fill:#cc2229;}</style></defs><title>england</title><g id="Calque_2" data-name="Calque 2"><g id="Calque_1-2" data-name="Calque 1"><path class="cls-1" d="M2279.41,1381.07V0H0V1381.07Z"/><path class="cls-2" d="M2279.41,1381.07V0H0V1381.07Z"/><path class="cls-1" d="M1403.93,1381.07V899.22h875.49V481.85H1403.93V0H863.19V481.85H0V899.22H863.19v481.85Z"/><path class="cls-1" d="M277.59,0,2279.41,1212.95V1381.1H2006.76L0,165.16V0Z"/><path class="cls-1" d="M2001.83,0,0,1212.95V1381.1H272.66L2279.41,165.16V0Z"/><path class="cls-3" d="M2279.41,557.32H1304.58V0H975.77V557.32H0V823.75H975.77v557.32h328.81V823.75h974.83Z"/><path class="cls-3" d="M1,0,792.91,481.85H615.18L0,107.51V0H1ZM0,1378.67v2.43H173.72L863.19,961.55V899.22H787.9Zm2279.41,2.43V1280.43L1652.93,899.22H1475.21l791.92,481.88ZM2091.5,0,1403.93,418.4v63.45h73.43L2269.23,0H2091.5Z"/></g></g></svg>
