<?xml version="1.0" encoding="utf-8"?>
<!-- Generator: Adobe Illustrator 21.1.0, SVG Export Plug-In . SVG Version: 6.00 Build 0)  -->
<svg version="1.1" id="Calque_1" xmlns="http://www.w3.org/2000/svg" xmlns:xlink="http://www.w3.org/1999/xlink" x="0px" y="0px"
	 viewBox="0 0 99.8 69.9" style="enable-background:new 0 0 99.8 69.9;" xml:space="preserve">
<title>mail</title>
<g id="Calque_2">
	<g id="mail">
		<path d="M46.3,40.7L5.6,0h88.5L53.3,40.7C51.4,42.7,48.2,42.7,46.3,40.7z"/>
		<path d="M99.8,5v59.9c0,2.8-2.2,5-5,5H5c-2.8,0-5-2.2-5-5V5c0-0.4,0.1-0.8,0.2-1.2c0.2,0.7,0.7,1.4,1.2,1.9l45,45
			c2,1.9,5.1,1.9,7.1,0l45-45c0.5-0.5,1-1.2,1.2-1.9C99.7,4.2,99.8,4.6,99.8,5z"/>
	</g>
</g>
</svg>
