<?xml version="1.0" encoding="utf-8"?>
<!-- Generator: Adobe Illustrator 21.1.0, SVG Export Plug-In . SVG Version: 6.00 Build 0)  -->
<svg version="1.1" id="Calque_1" xmlns="http://www.w3.org/2000/svg" xmlns:xlink="http://www.w3.org/1999/xlink" x="0px" y="0px"
	 viewBox="0 0 24 24" style="enable-background:new 0 0 24 24;" xml:space="preserve">
<style type="text/css">
	.st0{fill:none;}
</style>
<path class="st0" d="M0,0h24v24H0V0z"/>
<path d="M4.8,10.4c1.9,3.7,5.1,6.8,8.8,8.8l2.9-2.9c0.4-0.4,0.9-0.5,1.3-0.3c1.5,0.5,3.1,0.8,4.8,0.8c0.7,0,1.3,0.5,1.3,1.3v4.5
	c0,0.7-0.7,1.3-1.3,1.3C10.1,24,0,13.9,0,1.3C0,0.7,0.7,0,1.3,0H6c0.8,0,1.3,0.7,1.3,1.3c0,1.6,0.3,3.2,0.8,4.8
	c0.1,0.4,0,0.9-0.3,1.3L4.8,10.4z"/>
</svg>
