<svg xmlns="http://www.w3.org/2000/svg" viewBox="0 0 2279.9 1494.86"><defs><style>.cls-1{fill:#fff;}.cls-2{fill:#cc2229;}.cls-3{fill:#1e71b8;}.cls-4{fill:none;stroke:#000;stroke-miterlimit:2.61;stroke-width:0.49px;}</style></defs><title>english_1</title><g id="Calque_2" data-name="Calque 2"><g id="Calque_1-2" data-name="Calque 1"><path class="cls-1" d="M2279.66,1494.61V.25H.25V1494.61Z"/><path class="cls-2" d="M2279.66,1379.66v115H.25v-115Zm0-229.94v114.94H.25V1149.72H2279.66Zm0-229.88v114.93H.25V919.84Zm0-229.89V804.89H.25V690Zm0-229.94V575H.25V460Zm0-229.89V345.06H.25V230.12H2279.66Zm0-229.88V115.19H.25V.25Z"/><path class="cls-3" d="M948.39,805.77V.25H.25V805.77H948.39Z"/><path class="cls-1" d="M74.27,131.62l8.33-25.68L60.75,90h27l8.34-25.69L104.45,90h27l-21.85,15.91L118,131.62,96.12,115.76Zm151.68,0,8.33-25.68L212.42,90h27l8.33-25.69L256.11,90h27l-21.84,15.91,8.37,25.68-21.84-15.86-21.84,15.86Zm151.67,0L386,105.94,364.1,90h27l8.33-25.69L407.78,90h27l-21.84,15.91,8.37,25.68-21.84-15.86-21.85,15.86Zm151.67,0,8.34-25.68L515.77,90h27l8.33-25.69L559.46,90h27l-21.84,15.91L573,131.62l-21.84-15.86-21.85,15.86Zm151.68,0,8.33-25.68L667.45,90h27l8.31-25.69L711.13,90h27l-21.84,15.91,8.37,25.68-21.84-15.86Zm151.68,0L841,105.94,819.12,90h27l8.33-25.69L862.8,90h27L868,105.94l8.37,25.68-21.84-15.86ZM150.59,206.67,158.93,181l-21.85-15.93h27l8.33-25.69,8.33,25.69h27L185.92,181l8.37,25.67-21.84-15.86Zm151.68,0L310.6,181l-21.84-15.93h27l8.33-25.69,8.33,25.69h27L337.59,181,346,206.67l-21.85-15.86-21.84,15.86Zm151.67,0L462.27,181l-21.84-15.93h27l8.33-25.69,8.33,25.69h27L489.26,181l8.38,25.67L475.8,190.81l-21.85,15.86Zm151.68,0L614,181,592.1,165.08h27l8.33-25.69,8.33,25.69h27L640.94,181l8.37,25.67-21.84-15.86-21.84,15.86Zm151.67,0L765.62,181l-21.84-15.93h27l8.33-25.69,8.31,25.69h27L792.61,181,801,206.67l-21.84-15.86-21.85,15.86Zm-683,75.73,8.33-25.69L60.75,240.8h27l8.34-25.68,8.33,25.68h27l-21.85,15.91L118,282.4,96.12,266.53Zm151.68,0,8.33-25.69L212.42,240.8h27l8.33-25.68,8.33,25.68h27l-21.84,15.91,8.37,25.69-21.84-15.87Zm151.67,0L386,256.71,364.1,240.8h27l8.33-25.68,8.31,25.68h27l-21.84,15.91,8.37,25.69-21.84-15.87L377.62,282.4Zm151.67,0,8.34-25.69L515.77,240.8h27l8.33-25.68,8.33,25.68h27l-21.84,15.91L573,282.4l-21.84-15.87L529.28,282.4Zm151.68,0,8.33-25.69L667.45,240.8h27l8.31-25.68,8.33,25.68h27l-21.84,15.91,8.37,25.69-21.84-15.87Zm151.68,0L841,256.71,819.12,240.8h27l8.33-25.68,8.31,25.68h27L868,256.71l8.37,25.69-21.84-15.87ZM150.59,357.46l8.34-25.68-21.85-15.93h27l8.33-25.69,8.33,25.69h27l-21.84,15.93,8.37,25.68-21.84-15.87Zm151.68,0,8.33-25.68-21.84-15.93h27l8.33-25.69,8.33,25.69h27l-21.84,15.93L346,357.46l-21.85-15.87-21.84,15.87Zm151.67,0,8.33-25.68-21.84-15.93h27l8.33-25.69,8.33,25.69h27l-21.85,15.93,8.38,25.68L475.8,341.59l-21.85,15.87Zm151.68,0L614,331.78,592.1,315.85h27l8.33-25.69,8.33,25.69h27l-21.84,15.93,8.37,25.68-21.84-15.87-21.84,15.87Zm151.67,0,8.33-25.68-21.84-15.93h27l8.33-25.69,8.31,25.69h27l-21.85,15.93L801,357.46l-21.84-15.87-21.85,15.87Zm-683,75.72,8.33-25.68L60.75,391.58h27l8.34-25.69,8.33,25.69h27L109.58,407.5,118,433.18,96.12,417.3Zm151.68,0,8.33-25.68-21.85-15.91h27l8.33-25.69,8.33,25.69h27L261.26,407.5l8.37,25.68L247.79,417.3l-21.84,15.87Zm151.67,0L386,407.5,364.1,391.58h27l8.33-25.69,8.31,25.69h27L412.94,407.5l8.37,25.68L399.47,417.3l-21.85,15.87Zm151.67,0,8.34-25.68-21.85-15.91h27l8.33-25.69,8.33,25.69h27L564.61,407.5,573,433.18,551.14,417.3l-21.85,15.87Zm151.68,0,8.33-25.68-21.84-15.91h27l8.31-25.69,8.33,25.69h27L716.28,407.5l8.37,25.68L702.81,417.3Zm151.68,0L841,407.5l-21.85-15.91h27l8.33-25.69,8.31,25.69h27L868,407.5l8.37,25.68L854.49,417.3ZM150.59,508.23l8.34-25.68-21.85-15.93h27l8.33-25.68,8.33,25.68h27l-21.84,15.93,8.37,25.68-21.84-15.87Zm151.68,0,8.33-25.68-21.84-15.93h27l8.33-25.68,8.33,25.68h27l-21.84,15.93L346,508.23l-21.85-15.87-21.84,15.87Zm151.67,0,8.33-25.68-21.84-15.93h27l8.33-25.68,8.33,25.68h27l-21.85,15.93,8.38,25.68L475.8,492.36l-21.85,15.87Zm151.68,0L614,482.55,592.1,466.63h27l8.33-25.68,8.33,25.68h27l-21.84,15.93,8.37,25.68-21.84-15.87-21.84,15.87Zm151.67,0,8.33-25.68-21.84-15.93h27l8.33-25.68,8.31,25.68h27l-21.85,15.93L801,508.23l-21.84-15.87-21.85,15.87ZM74.27,584l8.33-25.68L60.75,542.36h27l8.34-25.69,8.33,25.69h27l-21.85,15.91L118,584,96.12,568.09Zm151.68,0,8.33-25.68-21.85-15.91h27l8.33-25.69,8.33,25.69h27l-21.84,15.91L269.63,584l-21.84-15.86L225.95,584Zm151.67,0L386,558.27,364.1,542.36h27l8.33-25.69,8.31,25.69h27l-21.84,15.91L421.31,584l-21.84-15.86L377.62,584Zm151.67,0,8.34-25.68-21.85-15.91h27l8.33-25.69,8.33,25.69h27l-21.84,15.91L573,584l-21.84-15.86L529.28,584ZM681,584l8.33-25.68-21.84-15.91h27l8.31-25.69,8.33,25.69h27l-21.84,15.91L724.65,584l-21.84-15.86Zm151.68,0L841,558.27l-21.85-15.91h27l8.33-25.69,8.31,25.69h27L868,558.27,876.33,584l-21.84-15.86ZM150.59,659l8.34-25.68L137.08,617.4h27l8.33-25.68,8.33,25.68h27l-21.84,15.93L194.29,659l-21.84-15.87Zm151.68,0,8.33-25.68L288.76,617.4h27l8.33-25.68,8.33,25.68h27l-21.84,15.93L346,659l-21.85-15.87L302.27,659Zm151.67,0,8.33-25.68L440.43,617.4h27l8.33-25.68,8.33,25.68h27l-21.85,15.93L497.64,659,475.8,643.13,453.94,659Zm151.68,0L614,633.33,592.1,617.4h27l8.33-25.68,8.33,25.68h27l-21.84,15.93L649.31,659l-21.84-15.87L605.62,659Zm151.67,0,8.33-25.68L743.78,617.4h27l8.33-25.68,8.31,25.68h27l-21.85,15.93L801,659l-21.84-15.87L757.29,659Zm-683,75.72L82.59,709,60.75,693.13h27l8.34-25.69,8.33,25.69h27L109.58,709,118,734.72,96.12,718.86Zm151.68,0L234.27,709l-21.85-15.91h27l8.33-25.69,8.33,25.69h27L261.26,709l8.37,25.68-21.84-15.86-21.84,15.86Zm151.67,0L386,709,364.1,693.13h27l8.33-25.69,8.31,25.69h27L412.94,709l8.37,25.68-21.84-15.86-21.85,15.86Zm151.67,0L537.62,709l-21.85-15.91h27l8.33-25.69,8.33,25.69h27L564.61,709,573,734.72l-21.84-15.86-21.85,15.86Zm151.68,0L689.29,709l-21.84-15.91h27l8.31-25.69,8.33,25.69h27L716.28,709l8.37,25.68-21.84-15.86Zm151.68,0L841,709l-21.85-15.91h27l8.33-25.69,8.31,25.69h27L868,709l8.37,25.68-21.84-15.86Z"/><path class="cls-4" d="M2279.66,1494.61V.25H.25V1494.61Z"/></g></g></svg>