<svg xmlns="http://www.w3.org/2000/svg" viewBox="0 0 120 106.47"><defs><style>.cls-1{fill:#1d1d1b;}</style></defs><title>home V5</title><g id="Calque_2" data-name="Calque 2"><g id="home"><path class="cls-1" d="M118,40.74l0,0a3.75,3.75,0,0,0-1.12-.4L117,40,63.52,1.15a6,6,0,0,0-7,0L2.94,40l.25.28A3.7,3.7,0,0,0,2,40.76H2a6,6,0,0,0-2,4.47v1a4,4,0,0,0,4,4h6v51.23a5,5,0,0,0,5,5h90a5,5,0,0,0,5-5V50.24h6a4,4,0,0,0,4-4v-1A6,6,0,0,0,118,40.74ZM60,17.62a7.5,7.5,0,1,1-7.5,7.5A7.5,7.5,0,0,1,60,17.62ZM100,94a5,5,0,0,1-5,5H25a5,5,0,0,1-5-5V54.48a5,5,0,0,1,2.06-4l.28-.2H97.66l.28.2a5,5,0,0,1,2.06,4Z"/></g></g></svg>