<svg xmlns="http://www.w3.org/2000/svg" viewBox="0 0 120 102.17"><defs><style>.cls-1{fill:#1d1d1b;}</style></defs><title>home V6</title><g id="Calque_2" data-name="Calque 2"><g id="home"><path class="cls-1" d="M116,42.7h-6v-5a5,5,0,0,0-2.06-4L62.94,1a5,5,0,0,0-5.88,0l-45,32.69a5,5,0,0,0-2.06,4v5H4a4,4,0,0,0-4,4v2.1a4,4,0,0,0,4,4h6V96.43c0,3.17,2.24,5.74,5,5.74h90c2.76,0,5-2.57,5-5.74V52.7h6a4,4,0,0,0,4-4v-2.1A4,4,0,0,0,116,42.7Zm-96-.14a6,6,0,0,1,2.06-4.63l.28-.23L57.06,12.47a5,5,0,0,1,5.88,0L97.66,37.7l.28.23A6,6,0,0,1,100,42.56v.14H20Zm80,45.26c0,3.17-2.24,5.74-5,5.74H25c-2.76,0-5-2.57-5-5.74V52.7h80Z"/><circle class="cls-1" cx="60" cy="28.93" r="7.5"/></g></g></svg>