<svg xmlns="http://www.w3.org/2000/svg" viewBox="0 0 120 102.17"><defs><style>.cls-1{fill:#1d1d1b;}.cls-2{fill:#fff;}</style></defs><title>home V7</title><g id="Calque_2" data-name="Calque 2"><g id="home"><path class="cls-1" d="M97.66,37.7l.28.23A6,6,0,0,1,100,42.56V87.82c0,3.17-2.24,5.74-5,5.74H25c-2.76,0-5-2.57-5-5.74V42.56a6,6,0,0,1,2.06-4.63l.28-.23H10V96.43c0,3.17,2.24,5.74,5,5.74h90c2.76,0,5-2.57,5-5.74V37.7Z"/><path class="cls-1" d="M110,37.7H97.66L62.94,12.47a5,5,0,0,0-5.88,0L22.34,37.7H10a5,5,0,0,1,2.06-4L57.06,1a5,5,0,0,1,5.88,0l45,32.69A5,5,0,0,1,110,37.7Z"/><path class="cls-1" d="M120,46.65v2.1a4,4,0,0,1-4,4H4a4,4,0,0,1-4-4v-2.1a4,4,0,0,1,4-4H116A4,4,0,0,1,120,46.65Z"/><path class="cls-1" d="M110,37.7v4.53l-.62.47A52,52,0,0,1,100,48.1a78.68,78.68,0,0,1-13.34,4.6H33.34A78.39,78.39,0,0,1,20,48.11a52.62,52.62,0,0,1-9.38-5.41L10,42.24V37.7a5,5,0,0,1,2.06-4L57.06,1a5,5,0,0,1,5.88,0l45,32.69A5,5,0,0,1,110,37.7Z"/><circle class="cls-2" cx="60" cy="26.35" r="7.5"/></g></g></svg>