<svg xmlns="http://www.w3.org/2000/svg" viewBox="0 0 120 102.17"><defs><style>.cls-1{fill:#1d1d1b;}.cls-2{fill:#fff;}</style></defs><title>home V9</title><g id="Calque_2" data-name="Calque 2"><g id="home"><path class="cls-1" d="M97.66,37.7l.28.23A6,6,0,0,1,100,42.56V87.82c0,3.17-2.24,5.74-5,5.74H25c-2.76,0-5-2.57-5-5.74V42.56a6,6,0,0,1,2.06-4.63l.28-.23H10V96.43c0,3.17,2.24,5.74,5,5.74h90c2.76,0,5-2.57,5-5.74V37.7Z"/><path class="cls-1" d="M120,37.8v2.1a4,4,0,0,1-4,4H4a4,4,0,0,1-4-4V37.8a4,4,0,0,1,4-4H116A4,4,0,0,1,120,37.8Z"/><path class="cls-1" d="M110,37.7v4.53l-.62.47c-.53.39-1.08.78-1.65,1.15a52.59,52.59,0,0,1-6.87,3.85H100V43.85H20V47.7h-.88a54.87,54.87,0,0,1-6.86-3.85c-.56-.38-1.11-.76-1.64-1.15L10,42.24V37.7a4.94,4.94,0,0,1,1.82-3.85,2.12,2.12,0,0,1,.24-.2L57.06,1a5,5,0,0,1,5.88,0l45,32.69a2.11,2.11,0,0,1,.24.2A5,5,0,0,1,110,37.7Z"/><circle class="cls-2" cx="60" cy="26.35" r="7.5"/></g></g></svg>