<svg xmlns="http://www.w3.org/2000/svg" viewBox="0 0 120 102.17"><defs><style>.cls-1{fill:#1d1d1b;}.cls-2{fill:#fff;}</style></defs><title>home V8</title><g id="Calque_2" data-name="Calque 2"><g id="home"><path class="cls-1" d="M97.66,37.7l.28.23A6,6,0,0,1,100,42.56V87.82c0,3.17-2.24,5.74-5,5.74H25c-2.76,0-5-2.57-5-5.74V42.56a6,6,0,0,1,2.06-4.63l.28-.23H10V96.43c0,3.17,2.24,5.74,5,5.74h90c2.76,0,5-2.57,5-5.74V37.7Z"/><path class="cls-1" d="M120,37.8v2.1a4,4,0,0,1-4,4H4a4,4,0,0,1-4-4V37.8a4,4,0,0,1,4-4H116A4,4,0,0,1,120,37.8Z"/><path class="cls-1" d="M110,37.7v4.53l-.62.47a51,51,0,0,1-8.52,5H19.12a51.74,51.74,0,0,1-8.5-5L10,42.24V37.7a5,5,0,0,1,2.06-4L57.06,1a5,5,0,0,1,5.88,0l45,32.69A5,5,0,0,1,110,37.7Z"/><circle class="cls-2" cx="60" cy="26.35" r="7.5"/></g></g></svg>