<?xml version="1.0" encoding="utf-8"?>
<!-- Generator: Adobe Illustrator 21.0.2, SVG Export Plug-In . SVG Version: 6.00 Build 0)  -->
<svg version="1.1" id="Calque_1" xmlns="http://www.w3.org/2000/svg" xmlns:xlink="http://www.w3.org/1999/xlink" x="0px" y="0px"
	 viewBox="0 0 120 102.2" style="enable-background:new 0 0 120 102.2;" xml:space="preserve">
<style type="text/css">
	.st0{fill:#FFFFFF;}
</style>
<title>home V10</title>
<g id="Calque_2">
	<g id="home">
		<path d="M97.7,37.7l0.3,0.2c1.3,1.2,2.1,2.9,2.1,4.6v45.3c0,3.2-2.2,5.7-5,5.7H25c-2.8,0-5-2.6-5-5.7V42.6c0-1.8,0.7-3.5,2.1-4.6
			l0.3-0.2H10v58.7c0,3.2,2.2,5.7,5,5.7h90c2.8,0,5-2.6,5-5.7V37.7H97.7z"/>
		<path d="M120,38.9v1c0,2.2-1.8,4-4,4H5c-2.8,0-5-2.2-5-5l0,0c0-2.8,2.2-5,5-5h110C117.8,33.9,120,36.1,120,38.9z"/>
		<path d="M110,37.7v4.5l-0.6,0.5c-0.5,0.4-1.1,0.8-1.7,1.2c-2.2,1.5-4.5,2.7-6.9,3.8H100v-3.9H20v3.9h-0.9
			c-2.4-1.1-4.7-2.4-6.9-3.8c-0.6-0.4-1.1-0.8-1.6-1.2L10,42.2v-4.5c0-1.5,0.7-2.9,1.8-3.8c0.1-0.1,0.2-0.1,0.2-0.2L57.1,1
			c1.8-1.3,4.1-1.3,5.9,0l45,32.7c0.1,0.1,0.2,0.1,0.2,0.2C109.3,34.8,110,36.2,110,37.7z"/>
		<circle class="st0" cx="60" cy="26.4" r="7.5"/>
	</g>
</g>
</svg>
