<svg xmlns="http://www.w3.org/2000/svg" viewBox="0 0 80 79.99"><defs><style>.cls-1{fill:#fff;}</style></defs><title>link</title><g id="Calque_2" data-name="Calque 2"><g id="link"><path class="cls-1" d="M53.1,48V74.09H5.9V26.9H32V21H7.08A7.1,7.1,0,0,0,0,28.08V72.91A7.1,7.1,0,0,0,7.08,80H51.92A7.1,7.1,0,0,0,59,72.91V48Z"/><path class="cls-1" d="M13.41,29.71H83.47a0,0,0,0,1,0,0v7.37a0,0,0,0,1,0,0H13.41a3.69,3.69,0,0,1-3.69-3.69v0a3.69,3.69,0,0,1,3.69-3.69Z" transform="translate(-9.96 42.73) rotate(-45)"/><path id="back" class="cls-1" d="M74.46,45.54a6.72,6.72,0,0,0,.08-1V12.23a6.69,6.69,0,0,0-6.67-6.67H35.58a6.33,6.33,0,0,0-1.13.1A6.69,6.69,0,0,1,41,0H73.33A6.69,6.69,0,0,1,80,6.67V39A6.69,6.69,0,0,1,74.46,45.54Z"/></g></g></svg>