<svg xmlns="http://www.w3.org/2000/svg" viewBox="0 0 100 89.87"><defs><style>.cls-1{fill:#55bfee;}.cls-2{fill:#fff;}</style></defs><title>user</title><g id="Calque_2" data-name="Calque 2"><g id="perso"><path class="cls-1" d="M30,53.87H70a30,30,0,0,1,30,30v6a0,0,0,0,1,0,0H0a0,0,0,0,1,0,0v-6A30,30,0,0,1,30,53.87Z"/><circle class="cls-1" cx="49.99" cy="26.67" r="26.67"/><circle class="cls-2" cx="41.63" cy="17.05" r="1.67"/><circle class="cls-2" cx="58.5" cy="17.05" r="1.67"/><rect class="cls-2" x="36.73" y="32.43" width="26.67" height="2" rx="0.83" ry="0.83"/><path class="cls-2" d="M60.5,64.27H74.76a2,2,0,0,1,2,2V83a0,0,0,0,1,0,0H58.5a0,0,0,0,1,0,0V66.27A2,2,0,0,1,60.5,64.27Z"/></g></g></svg>